<?xml version="1.0" encoding="UTF-8"?>
<svg version="1.1" xmlns="http://www.w3.org/2000/svg" width="355" height="346">
<path d="M0 0 C117.15 0 234.3 0 355 0 C355 114.18 355 228.36 355 346 C237.85 346 120.7 346 0 346 C0 231.82 0 117.64 0 0 Z " fill="#D48A25" transform="translate(0,0)"/>
<path d="M0 0 C117.15 0 234.3 0 355 0 C355 114.18 355 228.36 355 346 C237.85 346 120.7 346 0 346 C0 231.82 0 117.64 0 0 Z M137 16 C136.31679687 16.14421387 135.63359375 16.28842773 134.9296875 16.43701172 C110.91844911 21.531989 88.5077905 34.13153424 70 50 C69.44328613 50.47695313 68.88657227 50.95390625 68.31298828 51.4453125 C41.20743946 74.95931716 23.01526398 106.77293943 16.37451172 142.02929688 C16.04777086 143.74862687 15.68511759 145.46105439 15.31640625 147.171875 C12.04314925 164.23795979 13.36859313 182.90337365 16 200 C16.10763672 200.71220703 16.21527344 201.42441406 16.32617188 202.15820312 C22.65831509 241.33163147 47.15095067 277.97538328 78.79174805 301.38964844 C106.16798604 321.13766856 138.31819092 332.46825255 172.1875 332.3125 C174.07988403 332.30621582 174.07988403 332.30621582 176.01049805 332.29980469 C186.256849 332.17686679 196.0012456 331.19410606 206 329 C206.68803711 328.85546387 207.37607422 328.71092773 208.08496094 328.56201172 C249.36166464 319.74211975 285.74402864 294.41336541 308.67871094 259.06591797 C331.1846694 223.87644632 339.8485966 181.04238979 331.125 139.9765625 C330.75273538 138.31709234 330.3779346 136.65818804 330 135 C329.85046875 134.30616211 329.7009375 133.61232422 329.546875 132.89746094 C324.79345252 111.07793135 314.03977221 90.25722001 300 73 C299.54753906 72.44070801 299.09507812 71.88141602 298.62890625 71.30517578 C272.05410608 38.6718253 234.83803266 17.6359562 192.875 12.75 C173.77658549 10.87915915 155.7071031 11.75498539 137 16 Z " fill="#009168" transform="translate(0,0)"/>
<path d="M0 0 C6.51958337 4.04214169 9.04242642 9.68398348 11 17 C12.28110744 26.77360997 11.22404361 35.52398925 6 44 C2.29349253 48.244282 -2.09032472 51.68795961 -7.8046875 52.30078125 C-18.22776573 52.34056399 -18.22776573 52.34056399 -23 49 C-24.32 47.68 -25.64 46.36 -27 45 C-27.33 52.92 -27.66 60.84 -28 69 C-30.97 69 -33.94 69 -37 69 C-37 45.57 -37 22.14 -37 -2 C-34.03 -2 -31.06 -2 -28 -2 C-27.67 -0.02 -27.34 1.96 -27 4 C-26.113125 3.21625 -25.22625 2.4325 -24.3125 1.625 C-16.80856058 -4.53521073 -8.46374231 -4.63110428 0 0 Z " fill="#FEEBD3" transform="translate(247,149)"/>
<path d="M0 0 C4.20449051 2.13238497 6.54946649 4.43121432 9.125 8.375 C10 11.1875 10 11.1875 10.125 13.375 C9.125 14.375 9.125 14.375 5.3125 14.75 C3.11328125 14.734375 3.11328125 14.734375 1.125 14.375 C-1 12 -1 12 -2.875 9.375 C-7.4923107 7.1176481 -10.90761929 7.25031003 -15.875 8.375 C-16.865 9.035 -17.855 9.695 -18.875 10.375 C-19.12515873 13.95857241 -19.12515873 13.95857241 -18.875 17.375 C-13.48022343 19.39547716 -8.11892382 21.34423484 -2.5625 22.875 C2.97242685 24.49412009 6.84334801 26.45252202 10.125 31.375 C10.8099865 36.44867906 10.68696515 40.995631 8.75 45.75 C3.16318752 51.33681248 -2.60268171 53.67321022 -10.5 53.875 C-17.89289395 53.53619522 -23.18497168 52.55079127 -28.3125 47 C-30.49080027 44.21956795 -31.65642015 41.98156746 -31.875 38.375 C-22.84600472 37.58605866 -22.84600472 37.58605866 -18.875 40.8125 C-18.215 41.658125 -17.555 42.50375 -16.875 43.375 C-12.88118832 45.37190584 -8.14820045 44.76249579 -4 43.5 C-1.74174235 42.43779958 -1.74174235 42.43779958 0.125 40.375 C0.70850505 37.91790625 0.70850505 37.91790625 0.125 35.375 C-3.95498111 32.28916634 -8.39325984 31.30785863 -13.25 30.0625 C-19.77942983 28.27827921 -24.26692305 26.55908657 -28.875 21.375 C-30.73731382 17.65037235 -30.2946418 13.43988852 -29.875 9.375 C-27.61587744 3.93256838 -23.84930189 1.65275262 -18.65625 -0.70703125 C-12.26486987 -2.81654576 -6.23626175 -2.45106805 0 0 Z " fill="#FDE9D1" transform="translate(154.875,147.625)"/>
<path d="M0 0 C4.15728204 1.96147336 6.94498563 5.47567528 8.53125 9.78125 C10.12179125 17.30981192 10.13397909 25.38563345 6 32 C3.15830836 35.33898768 1.66971665 36.69438222 -2.625 37.48046875 C-7.03625885 37.7022304 -10.84509335 37.68635639 -14.5 35 C-19.66064506 28.80722593 -20.57975902 22.89865829 -20.34765625 14.90625 C-19.65340614 9.10263108 -17.567782 5.49312571 -13.375 1.5 C-8.79025591 -0.53766404 -4.93682774 -0.91511929 0 0 Z " fill="#D58A26" transform="translate(239,155)"/>
<path d="M0 0 C0 2.97 0 5.94 0 9 C-2.041875 9.12375 -2.041875 9.12375 -4.125 9.25 C-8.6602277 9.75708845 -11.47174368 10.98807387 -15 14 C-17.61390289 17.733504 -17.34796401 21.87776886 -17.4140625 26.265625 C-17.43342865 27.05902283 -17.4527948 27.85242065 -17.4727478 28.66986084 C-17.53238361 31.19646557 -17.57886443 33.72311625 -17.625 36.25 C-17.66319455 37.96616537 -17.70224715 39.68231187 -17.7421875 41.3984375 C-17.83807186 45.59880456 -17.92216167 49.79926134 -18 54 C-20.97 54 -23.94 54 -27 54 C-27 36.51 -27 19.02 -27 1 C-24.03 1 -21.06 1 -18 1 C-17.67 2.65 -17.34 4.3 -17 6 C-16.05125 5.195625 -15.1025 4.39125 -14.125 3.5625 C-9.35999202 -0.47739807 -6.17836791 -0.0882624 0 0 Z " fill="#FEECD5" transform="translate(202,146)"/>
<path d="M0 0 C0 2.97 0 5.94 0 9 C-2.041875 9.12375 -2.041875 9.12375 -4.125 9.25 C-8.6602277 9.75708845 -11.47174368 10.98807387 -15 14 C-17.61390289 17.733504 -17.34796401 21.87776886 -17.4140625 26.265625 C-17.43342865 27.05902283 -17.4527948 27.85242065 -17.4727478 28.66986084 C-17.53238361 31.19646557 -17.57886443 33.72311625 -17.625 36.25 C-17.66319455 37.96616537 -17.70224715 39.68231187 -17.7421875 41.3984375 C-17.83807186 45.59880456 -17.92216167 49.79926134 -18 54 C-20.97 54 -23.94 54 -27 54 C-27 36.51 -27 19.02 -27 1 C-24.03 1 -21.06 1 -18 1 C-17.67 2.65 -17.34 4.3 -17 6 C-16.05125 5.195625 -15.1025 4.39125 -14.125 3.5625 C-9.35999202 -0.47739807 -6.17836791 -0.0882624 0 0 Z " fill="#FEECD5" transform="translate(120,146)"/>
</svg>
